inDegrees=no
num_controls=7
num_derivatives=13
num_iterations=112
num_multipliers=7
num_parameters=0
num_slacks=7
num_states=26
objective=0.497119
objective_accelerations=0.032280
objective_balance=0.003274
objective_effort=0.035018
objective_height=0.421058
objective_ligament=0.005489
solver_duration=1382.134848
status=Solve_Succeeded
success=true
DataType=double
version=3
OpenSimVersion=4.5
endheader
time	/jointset/ground_pelvis/pelvis_tilt/value	/jointset/ground_pelvis/pelvis_tx/value	/jointset/ground_pelvis/pelvis_ty/value	/jointset/hip_r/hip_flexion_r/value	/jointset/hip_r/hip_adduction_r/value	/jointset/hip_r/hip_rotation_r/value	/jointset/back/lumbar_extension/value	/jointset/patellofemoral_r/patellar_flexion_r/value	/jointset/knee_r/knee_flexion_r/value	/jointset/knee_r/knee_adduction_r/value	/jointset/knee_r/knee_rotation_r/value	/jointset/ankle_r/ankle_angle_r/value	/jointset/subtalar_r/subtalar_angle_r/value	/jointset/ground_pelvis/pelvis_tilt/speed	/jointset/ground_pelvis/pelvis_tx/speed	/jointset/ground_pelvis/pelvis_ty/speed	/jointset/hip_r/hip_flexion_r/speed	/jointset/hip_r/hip_adduction_r/speed	/jointset/hip_r/hip_rotation_r/speed	/jointset/back/lumbar_extension/speed	/jointset/patellofemoral_r/patellar_flexion_r/speed	/jointset/knee_r/knee_flexion_r/speed	/jointset/knee_r/knee_adduction_r/speed	/jointset/knee_r/knee_rotation_r/speed	/jointset/ankle_r/ankle_angle_r/speed	/jointset/subtalar_r/subtalar_angle_r/speed	/forceset/tau_hip_flexion_r	/forceset/tau_hip_adduction_r	/forceset/tau_hip_rotation_r	/forceset/tau_knee_flexion_r	/forceset/tau_ankle_angle_r	/forceset/tau_subtalar_angle_r	/forceset/tau_lumbar_extension	lambda_cid13_p0	lambda_cid14_p0	lambda_cid14_p1	lambda_cid14_p2	lambda_cid14_p3	lambda_cid14_p4	lambda_cid14_p5	/jointset/ground_pelvis/pelvis_tilt/accel	/jointset/ground_pelvis/pelvis_tx/accel	/jointset/ground_pelvis/pelvis_ty/accel	/jointset/hip_r/hip_flexion_r/accel	/jointset/hip_r/hip_adduction_r/accel	/jointset/hip_r/hip_rotation_r/accel	/jointset/back/lumbar_extension/accel	/jointset/patellofemoral_r/patellar_flexion_r/accel	/jointset/knee_r/knee_flexion_r/accel	/jointset/knee_r/knee_adduction_r/accel	/jointset/knee_r/knee_rotation_r/accel	/jointset/ankle_r/ankle_angle_r/accel	/jointset/subtalar_r/subtalar_angle_r/accel	gamma_cid13_p0	gamma_cid14_p0	gamma_cid14_p1	gamma_cid14_p2	gamma_cid14_p3	gamma_cid14_p4	gamma_cid14_p5
0.5	-0.09747206450077532	0.05188111999536459	0.8636595066647891	0.6921240194591193	-0.2301731789789819	-0.1331889736567293	-0.3167210716623809	0.6872849239050767	0.6872849239052823	0.04165946795254198	0.1744381913665729	0.2635075410106956	0.05654041647189582	-0.2620222971553977	-0.08923129137322644	-0.3257856428454162	1.403079534199096	-0.007645289489397939	0.2551454999902206	-0.600885149586855	1.662683450819145	1.662683450819091	-0.279756956667779	-3.736817788302631e-06	0.6111477707314367	0.1643060820150303	-0.07384833345866396	-0.01941864140063381	0.008264561973669838	-0.3404862558978251	0.06384895091405006	-0.01007760126076429	0.1340467944629513	-32.05203312251621	-21.68218419695694	-4.226864221228356	-3.373699387555245	3.389480200999615	-670.2302471741402	60.30488600856877	0.0644403203422321	0.2722399363523091	-0.3496980030844943	-0.8366541091873454	-0.05430070127070346	-0.5577953073394371	1.26415097277692	-1.108872083756341	-1.108872083756226	0.3795915812185129	0.007064784945660346	-0.4659313002795285	-0.06382142543378215	-1.091335779256207e-07	-1.583192597128814e-07	5.247513384597653e-07	-1.248862528412902e-06	4.20104720467909e-08	-2.165394629620102e-07	8.484541329315778e-07
0.51	-0.1000886297122267	0.05100254364307948	0.8603848971805743	0.7061107157841617	-0.2302531058248254	-0.1306641893003095	-0.3226659587491694	0.7038537284716186	0.7038537284716636	0.03888334728933794	0.1744383458430934	0.2695945604566509	0.05817888659007465	-0.2612553570355384	-0.0864734596275204	-0.3290618363432703	1.394061960789604	-0.008343469609937225	0.2498329817190827	-0.5880091195630091	1.65083537870094	1.650835378700956	-0.2754221317673594	1.838862532365314e-05	0.6061684525524088	0.1633534533102839	-0.07913678954139992	-0.01761095930445617	0.008923865767468498	-0.3432531748164952	0.05954032683557554	-0.009478238660165755	0.1389106093085619	-31.10611840145594	-23.2064325531568	-4.349232561875854	-3.221933966686772	3.989120931865501	-673.4249553426233	60.08826953518698	0.08811642913609655	0.2791420500684741	-0.3054611715531619	-0.9639915999468686	-0.07825089334890115	-0.5149220351190129	1.311801248368105	-1.259066274117274	-1.259066274106871	0.467189683674852	-0.002867610425483902	-0.5270909728521342	-0.1162256116804346	-9.356515963735934e-08	-1.193045719790612e-07	5.788828926851842e-07	-9.521270981478252e-07	1.228122745570014e-08	-1.732983480676333e-07	7.493937032285248e-07
0.52	-0.1026964664082121	0.05015186305952932	0.8570797495316975	0.720001299846488	-0.2303401493170546	-0.1281919185162258	-0.3284795910894829	0.7202967940173238	0.7202967940172095	0.03615192722298301	0.1744381907671663	0.2756291549415885	0.05980678201746901	-0.2602765940625508	-0.08365213762623452	-0.3318932757778309	1.383857081655445	-0.009068618766608891	0.2446427855232204	-0.5746342002919826	1.637535646652145	1.63753564665223	-0.2708168372980936	-6.564730834285651e-05	0.6006627785278721	0.1621911438581229	-0.08442524562413198	-0.01580327720828377	0.009583169561322883	-0.3460200937351661	0.05523170275709834	-0.008878876059576083	0.1437744241541772	-30.15156231238578	-24.73502685892986	-4.469729940078161	-3.07347375666462	4.575184657964888	-676.6932938136637	59.93546580685836	0.10680489096794	0.2849379874682741	-0.2607471904257931	-1.074115254120611	-0.05969450849717151	-0.5333308922843557	1.363928822213002	-1.399204069874499	-1.39920406987454	0.4336854949877293	-0.01416749041003408	-0.5712024693813291	-0.1057575749167147	-6.975485642066815e-08	-4.167658554756434e-08	7.616564188107524e-07	-3.787761318324803e-07	-5.723809303841586e-08	-8.099704595866482e-08	6.111140634075046e-07
0.53	-0.1052935452456079	0.04932968047159886	0.8537485367199658	0.7337841715458663	-0.2304341340034609	-0.1257726955331699	-0.3341569969368879	0.7365998131842237	0.7365998131842645	0.03346599553274606	0.1744376262185455	0.2816062802670401	0.06142267455212166	-0.2591018289958547	-0.08077580923683489	-0.3342708937445774	1.372520179814029	-0.009734735877237395	0.2392362493751459	-0.5607762152564346	1.622834080024486	1.622834080024415	-0.2663132215365221	-6.837307519496228e-05	0.5946790088403379	0.1609483821104324	-0.08958262081099086	-0.01411228620019284	0.01026181246039387	-0.3489730151128471	0.05114740427796861	-0.008392400351561876	0.1485309718696874	-29.19096455168532	-26.20292306202126	-4.636567399158051	-2.90855489946246	5.141503457778118	-680.0326525740591	59.74542056472114	0.1284130602327926	0.2902471224588423	-0.2145166793107518	-1.193039733981856	-0.07097575929177369	-0.539215438397747	1.407346434124249	-1.540737515096599	-1.540737515119927	0.4672584806253137	0.003508551391635728	-0.6244782868496103	-0.1392569591533269	-4.431577302591625e-08	4.08542698258638e-08	9.676304774431134e-07	2.282441689226642e-07	-1.325785340625247e-07	1.297799929320447e-08	4.931153049686792e-07
